<svg width="19" height="18" viewBox="0 0 19 18" fill="none" xmlns="http://www.w3.org/2000/svg">
<path fill-rule="evenodd" clip-rule="evenodd" d="M1.53201 14.493C2.29479 15.6464 3.72806 16.0421 4.73336 15.3772L3.66687 13.7647C4.46572 14.5648 5.64359 14.7753 6.50629 14.2047L5.43784 12.5892C6.23673 13.3914 7.4162 13.6029 8.27982 13.0317L5.5178 8.8555C4.65418 9.42667 4.38722 10.5948 4.81273 11.644L3.74427 10.0284C2.88204 10.5987 2.61438 11.7653 3.03794 12.8137L1.97134 11.201C0.966044 11.8659 0.76923 13.3397 1.53201 14.493Z" fill="#FF4802"/>
<path fill-rule="evenodd" clip-rule="evenodd" d="M14.1345 15.7443C14.3357 15.9639 14.6015 16.0891 14.8762 16.1175C14.8806 16.3937 14.9822 16.6694 15.1835 16.889C15.6201 17.3654 16.3601 17.3976 16.8365 16.9611C17.0763 16.7413 17.2036 16.4446 17.2152 16.1434C17.5163 16.1581 17.8229 16.0571 18.0627 15.8373C18.5391 15.4008 18.5714 14.6607 18.1348 14.1843C17.9336 13.9647 17.6678 13.8395 17.3931 13.811C17.3887 13.5349 17.2871 13.2592 17.0858 13.0396C16.6492 12.5632 15.9091 12.531 15.4328 12.9675C15.193 13.1873 15.0657 13.484 15.0541 13.7852C14.753 13.7705 14.4464 13.8715 14.2066 14.0912C13.7302 14.5278 13.6979 15.2679 14.1345 15.7443Z" fill="#DAA8EF"/>
<path fill-rule="evenodd" clip-rule="evenodd" d="M13.6457 5.1975C14.971 5.3806 16.3517 4.74789 17.0808 3.49542C15.7289 2.70839 14.0392 2.99484 12.9691 4.08927L13.2636 3.58345C13.8103 2.6443 13.5103 1.44863 12.594 0.915231L11.3494 0.190655L10.6067 1.4664C10.06 2.40555 10.36 3.60122 11.2762 4.13462L11.4416 4.23085C10.1162 4.04776 8.7356 4.68046 8.00646 5.93294C9.35836 6.71996 11.048 6.43352 12.1182 5.33908L11.8237 5.8449C11.277 6.78405 11.577 7.97972 12.4932 8.51312L13.7379 9.2377L14.4805 7.96195C15.0273 7.02281 14.7273 5.82714 13.811 5.29373L13.6457 5.1975Z" fill="#3057A7"/>
<path d="M4.00321 5.50447C5.47715 5.50447 6.67201 4.30961 6.67201 2.83567C6.67201 1.36173 5.47715 0.16687 4.00321 0.16687C2.52927 0.16687 1.33441 1.36173 1.33441 2.83567C1.33441 4.30961 2.52927 5.50447 4.00321 5.50447Z" fill="#EDCE18"/>
</svg>
